<svg enable-background="new 0 0 1024 1024" id="Layer_1" version="1.1" viewBox="0 0 1024 1024"
	width="100%"
	x="0px" xmlns="http://www.w3.org/2000/svg" y="0px" xml:space="preserve">
<path d="
M459.476807,241.548676
	C462.118286,247.479294 466.898895,246.037796 471.206055,245.471268
	C490.763916,242.898804 510.343994,243.080811 529.970337,244.512695
	C583.753662,248.436554 633.848572,264.736420 681.330811,289.673645
	C685.359436,291.789490 688.000244,290.649719 691.286194,288.681580
	C717.912842,272.733276 745.367249,258.487976 775.031311,248.951691
	C782.470764,246.560074 790.067566,244.696991 797.971680,244.664124
	C811.304810,244.608688 819.909302,250.655121 824.222107,263.482361
	C827.789551,274.092926 827.709839,285.194550 827.033875,296.117737
	C826.224426,309.196686 825.357117,322.289154 823.541382,335.316925
	C821.521851,349.807007 819.099182,364.192535 815.559631,378.376190
	C814.608582,382.187164 815.104004,385.087494 817.546448,388.381805
	C849.072571,430.904114 872.656250,477.485474 888.243042,528.084412
	C896.430664,554.663696 901.578918,581.844604 904.482971,609.500305
	C905.924622,623.228943 907.467529,636.931946 907.307861,650.753174
	C907.270935,653.954224 908.146362,655.474487 911.642273,655.963562
	C928.895752,658.377380 946.066895,661.415833 963.349609,663.572876
	C979.057373,665.533264 988.517090,672.669067 991.780029,686.510803
	C992.231262,688.424988 992.310364,690.461426 992.313354,692.441650
	C992.348938,715.938843 992.279297,739.436279 992.369568,762.933167
	C992.401184,771.170776 989.600891,778.311707 984.397095,784.463257
	C955.679688,818.411621 926.999695,852.393066 898.045959,886.139404
	C885.395142,900.884216 868.584656,906.067322 849.897339,902.889282
	C804.235901,895.123779 758.699341,886.622742 713.118835,878.382812
	C671.129700,870.792175 629.166382,863.056458 587.159424,855.565857
	C539.264832,847.025513 491.327240,838.726074 443.422058,830.244446
	C412.361084,824.745056 381.336609,819.039795 350.274170,813.548828
	C313.814270,807.103821 277.323700,800.832397 240.859665,794.410522
	C193.929291,786.145386 147.015411,777.786621 100.087555,769.507080
	C80.638596,766.075684 61.165218,762.782776 41.715282,759.356934
	C24.650183,756.351196 14.088822,743.951843 14.491566,726.669861
	C15.100952,700.520508 14.822487,674.344666 14.559058,648.183716
	C14.466517,638.993469 17.829357,631.545288 24.170223,625.456238
	C39.068439,611.149719 54.189812,597.074890 69.273010,582.961975
	C83.869186,569.304749 98.513893,555.699341 113.183327,542.120850
	C115.134003,540.315247 115.993790,538.085388 116.640335,535.642029
	C125.053200,503.849884 143.643921,480.034821 172.621490,464.418793
	C174.675018,463.312134 175.894821,461.830780 176.726654,459.691803
	C200.104385,399.579010 239.888855,351.750488 288.573090,310.631439
	C291.734131,307.961609 293.924805,304.916687 295.563721,301.147186
	C313.029663,260.976257 336.311646,224.429504 364.916931,191.313919
	C375.495148,179.067780 385.678955,177.622391 400.048431,185.213745
	C410.177887,190.565125 418.618042,198.144150 426.854950,205.920731
	C438.501373,216.916336 448.979980,229.008987 459.476807,241.548676
M191.937897,590.498169
	C196.860229,588.914429 201.669464,587.111816 206.170532,584.480347
	C218.427338,577.314514 228.322723,567.512878 237.631271,556.969360
	C243.077133,550.801025 251.448990,550.423584 256.970062,556.357117
	C259.643097,559.229858 262.640747,560.117859 266.112366,560.622009
	C276.621033,562.147949 287.129822,563.672913 297.637909,565.203064
	C319.310974,568.358765 340.983459,571.518127 362.656372,574.674744
	C382.360840,577.544739 402.065430,580.414062 421.770172,583.282043
	C440.982941,586.078430 460.194855,588.880798 479.409271,591.665894
	C499.281158,594.546448 519.160156,597.377869 539.027283,600.290588
	C552.984741,602.336853 566.924500,604.503906 580.879761,606.565430
	C583.413208,606.939697 585.025024,606.378784 585.908997,603.287659
	C592.908020,578.811401 606.211121,558.137512 624.943665,541.059692
	C652.422913,516.007751 684.171082,506.332397 720.802368,515.689148
	C734.056213,519.074585 746.275574,524.692139 756.039001,534.556824
	C763.462830,542.057495 760.706848,551.993286 750.632202,555.240784
	C745.385681,556.931885 741.109070,555.129944 737.477478,551.520691
	C734.374451,548.436829 731.120056,545.638000 727.107178,543.833496
	C710.524109,536.376587 693.050781,534.203247 676.031433,540.191589
	C639.788696,552.943726 617.258362,579.116089 608.869080,616.363037
	C605.305847,632.182922 612.811707,648.898438 631.718628,654.484375
	C643.697266,658.023499 655.705139,657.815186 667.444580,653.188171
	C686.088867,645.839539 701.229309,633.336548 715.816284,620.058533
	C718.174133,617.912292 720.479065,615.770630 723.512207,614.622559
	C728.013855,612.918579 732.443665,612.965820 736.229675,616.136475
	C739.828247,619.150146 741.201965,623.110229 739.718201,627.808960
	C739.533020,628.395508 739.692932,629.091003 739.692932,629.583130
	C740.590820,630.846130 741.882385,630.720276 742.976013,630.897827
	C752.800171,632.493347 762.623962,634.098206 772.469727,635.551880
	C807.269470,640.689880 842.101379,645.618042 876.858215,651.029663
	C882.220215,651.864441 882.922791,650.118958 882.675171,645.754639
	C881.592102,626.670410 879.945618,607.670959 876.807129,588.776672
	C870.579285,551.284241 859.307678,515.430298 843.260803,481.013519
	C829.124390,450.694305 811.396362,422.536713 791.956238,395.414886
	C788.759644,390.955109 788.032349,386.472443 789.264282,381.304565
	C791.151855,373.386749 792.952515,365.444916 794.601501,357.474243
	C798.207336,340.044586 800.189636,322.379059 801.485596,304.658508
	C802.127014,295.889221 802.092163,287.060059 801.997498,278.236115
	C801.916748,270.705017 798.836487,269.260956 791.035400,270.869171
	C782.864075,272.553741 775.095154,275.598511 767.360718,278.675385
	C741.571960,288.934418 717.454529,302.419128 693.914124,316.977081
	C687.140930,321.165802 680.897400,320.962128 674.391357,316.500122
	C667.241455,311.596527 659.663940,307.385345 651.797485,303.718170
	C615.348083,286.726105 577.301636,275.462097 537.226868,271.053345
	C514.421448,268.544464 491.721741,269.167389 469.000763,271.606354
	C450.126312,273.632385 453.256836,276.902039 439.353546,259.787903
	C427.046997,244.639282 413.913544,230.243256 399.251556,217.315414
	C388.998016,208.274658 386.216400,208.501389 377.484802,218.681335
	C377.050934,219.187195 376.640472,219.713120 376.212158,220.223862
	C351.955109,249.151215 332.473419,281.018066 317.616302,315.705048
	C315.848785,319.831696 313.237518,322.950653 309.737701,325.740814
	C270.995087,356.627899 239.131882,393.457367 214.708527,436.615967
	C211.469376,442.339905 208.555618,448.290497 206.277557,454.841705
	C209.941360,456.202576 213.279663,455.582642 216.517227,455.605225
	C239.190063,455.763367 258.181915,463.898956 272.132904,482.042633
	C279.988342,492.258789 286.670166,503.267883 286.320831,516.943054
	C286.186615,522.196777 283.071808,525.580811 277.868744,526.423035
	C270.070984,527.685303 264.885529,524.316711 261.749146,515.603271
	C258.000946,505.190094 252.549927,495.796143 243.478485,489.359375
	C226.080643,477.014465 206.636520,477.015900 188.273468,485.129639
	C159.359268,497.905487 142.775696,521.339722 138.547943,552.687317
	C135.989288,571.658936 147.344635,586.520630 165.994293,590.938049
	C174.425186,592.935059 182.768417,592.508667 191.937897,590.498169
M138.255478,722.412109
	C104.930214,716.767395 71.604950,711.122681 37.350632,705.320618
	C37.350632,711.590332 37.327602,717.354431 37.356308,723.118225
	C37.394482,730.783447 40.304707,734.351196 47.983509,735.705078
	C71.188477,739.796509 94.417374,743.752014 117.624184,747.833069
	C170.580124,757.145691 223.528351,766.502197 276.479950,775.839539
	C318.159973,783.189331 359.841888,790.528748 401.520142,797.888611
	C442.871948,805.190857 484.230591,812.455200 525.567566,819.840576
	C578.822876,829.355408 632.064453,838.947388 685.303040,848.555420
	C740.349121,858.489685 795.387878,868.464417 850.421875,878.465515
	C861.926392,880.556152 872.467773,879.070496 880.439392,869.743774
	C909.110840,836.198364 937.616211,802.511108 966.225342,768.912292
	C967.932007,766.907959 968.939270,764.613159 969.212097,762.162415
	C970.313538,752.268066 969.499451,742.421631 968.432861,731.989624
	C967.617920,732.911682 967.271545,733.250977 966.985229,733.635071
	C944.692627,763.543762 922.552429,793.567566 900.061523,823.326355
	C886.404846,841.396118 867.565796,848.243286 845.522400,845.486450
	C829.405273,843.470703 813.449707,840.150391 797.432922,837.349670
	C766.369568,831.917847 735.309021,826.469421 704.256531,820.976440
	C678.922607,816.494995 653.615723,811.859924 628.272400,807.432983
	C585.273132,799.921814 542.250366,792.545593 499.245514,785.066589
	C459.665833,778.183228 420.098602,771.228027 380.522247,764.325317
	C346.673737,758.421631 312.825989,752.513245 278.966736,746.671631
	C252.791779,742.155762 226.593124,737.777344 200.417084,733.267761
	C179.973785,729.745728 159.549042,726.116211 138.255478,722.412109
M747.217102,655.401855
	C741.140503,654.522095 735.083008,653.457092 728.980530,652.829163
	C725.063110,652.426147 720.816772,649.902893 717.292664,651.994141
	C712.414490,654.888916 708.255371,658.995300 703.232117,663.029602
	C705.225281,663.794189 706.245300,664.390076 707.334412,664.571533
	C717.811218,666.317200 728.289856,668.056641 738.787415,669.671448
	C749.645081,671.341675 755.904968,679.199951 754.102417,689.145386
	C753.847961,690.549194 753.405212,691.918884 752.723816,694.573730
	C761.066956,680.944336 768.525574,673.751160 787.814819,677.328430
	C811.631470,681.745239 835.681335,684.893555 859.604919,688.748230
	C876.972290,691.546631 894.338684,694.386414 911.625732,697.632629
	C920.426086,699.285217 924.203979,704.728821 924.419678,713.513733
	C924.555481,719.046448 922.252319,723.507080 919.126099,727.705811
	C904.803650,746.942200 890.501526,766.194092 876.081360,785.357117
	C868.215454,795.810120 857.301941,800.378418 844.589905,799.041504
	C831.235413,797.636902 817.996826,795.063843 804.740173,792.809448
	C778.878662,788.411682 753.053223,783.800720 727.188232,779.423889
	C693.962341,773.801514 660.706726,768.354431 627.474121,762.771118
	C605.209412,759.030396 582.974487,755.112122 560.704590,751.402954
	C530.900452,746.438843 501.074554,741.605408 471.259644,736.705994
	C446.196411,732.587463 421.136230,728.450195 396.073395,724.329346
	C368.387848,719.777222 340.699158,715.244202 313.014954,710.683899
	C294.342377,707.608032 275.679138,704.475159 257.004608,701.411377
	C230.963272,697.139038 204.913101,692.920471 178.870712,688.654480
	C151.844666,684.227356 124.812065,679.838257 97.806496,675.289124
	C88.971802,673.800964 79.960632,673.135742 71.356354,670.509521
	C59.171566,666.790527 56.135818,655.182129 64.784248,645.994873
	C66.153671,644.540161 67.602409,643.157043 69.056915,641.785828
	C85.908775,625.899292 102.765266,610.017700 119.632408,594.147461
	C121.203568,592.669067 122.990791,591.515625 121.618301,588.766724
	C119.265732,584.054993 117.218933,579.190613 114.932732,574.145325
	C113.844383,575.044189 112.920662,575.729492 112.084648,576.508911
	C92.464760,594.800903 72.972191,613.231506 53.205952,631.363831
	C36.520397,646.670105 37.230141,645.142822 37.369137,668.953308
	C37.411800,676.261230 41.472961,681.405029 48.642403,682.678345
	C63.020653,685.231812 77.464745,687.412048 91.856949,689.889893
	C133.568237,697.071106 175.260315,704.363892 216.973129,711.536133
	C256.731171,718.372192 296.519104,725.035095 336.269379,731.915710
	C373.557770,738.370056 410.802551,745.075928 448.087372,751.551208
	C493.225708,759.390503 538.400024,767.022766 583.532776,774.893799
	C630.133911,783.021057 676.707397,791.306702 723.286194,799.561584
	C763.982117,806.773865 804.633545,814.245789 845.378418,821.168335
	C859.328735,823.538452 871.878723,820.220032 880.929810,808.189941
	C889.540283,796.745667 898.219604,785.353149 906.831116,773.909607
	C926.351318,747.969971 945.860046,722.021729 965.341736,696.053284
	C968.085205,692.396301 967.421875,690.262756 963.172485,688.547607
	C962.098267,688.114014 960.955811,687.778259 959.813049,687.596924
	C950.796509,686.166077 941.777039,684.751343 932.749451,683.392151
	C906.979004,679.512268 881.206116,675.648254 855.430542,671.802307
	C836.381592,668.960022 817.319275,666.206909 798.277283,663.319214
	C781.538025,660.780701 764.818726,658.110596 747.217102,655.401855
M590.456055,666.976074
	C594.341980,662.660156 595.231934,658.733826 590.928284,653.625488
	C586.972046,648.929504 584.874268,642.779175 584.294067,636.621765
	C583.852295,631.933960 581.189636,631.017822 577.535828,630.460999
	C549.154114,626.135620 520.783020,621.740234 492.395294,617.454651
	C454.652802,611.756775 416.895569,606.156616 379.149719,600.480896
	C337.298187,594.187866 295.452576,587.855225 253.603165,581.548279
	C251.771515,581.272156 249.949890,581.129150 248.423340,582.558044
	C244.831268,585.920471 241.222565,589.265015 237.602112,592.633911
	C239.398911,594.409668 240.713470,594.461731 242.039597,594.675537
	C250.064865,595.969177 258.118805,597.137878 266.081940,598.749634
	C274.855774,600.525391 278.835510,607.201477 277.512939,616.151733
	C276.547546,622.684570 271.634857,626.697815 268.553802,631.921692
	C274.029907,626.385559 279.269012,620.668030 284.512451,614.954468
	C290.461151,608.472534 297.589020,604.627197 306.624084,605.689087
	C314.861145,606.657166 323.063354,607.924866 331.276489,609.091919
	C333.411682,609.395325 335.517365,609.937378 337.658417,610.162964
	C352.274017,611.702332 355.859467,626.260315 347.777771,637.186279
	C345.070465,640.846375 341.522064,643.939758 339.684845,648.282410
	C342.139832,650.393494 343.115143,648.532166 344.217773,647.115417
	C349.126984,640.807617 354.084137,634.536194 358.927002,628.177734
	C365.381042,619.703918 373.656403,615.254822 384.456757,616.830444
	C393.487976,618.147827 402.456421,619.890320 411.467957,621.350159
	C415.732849,622.041138 420.116974,622.302063 423.776123,624.940918
	C431.768799,630.705017 432.701660,641.566528 426.133331,650.706482
	C423.706940,654.082825 420.525909,657.025330 419.258087,661.278198
	C421.995544,661.992798 422.977722,660.185303 424.023682,658.785095
	C429.302094,651.718811 434.498169,644.591064 439.726654,637.487427
	C444.988678,630.338196 452.072784,626.691040 460.888489,627.858704
	C472.229462,629.360779 483.523285,631.305786 494.767670,633.429382
	C510.409546,636.383423 515.427856,649.055298 506.476196,662.392700
	C504.251587,665.707214 502.070068,669.050659 499.868774,672.380859
	C505.455902,665.925720 510.312042,658.995178 515.296509,652.158203
	C520.835327,644.560669 527.609070,638.828125 537.739685,639.700989
	C551.312378,640.870422 564.749146,643.195007 578.030396,646.120850
	C585.772278,647.826294 589.920715,655.713440 588.357788,663.620911
	C587.431763,668.306458 584.884705,672.190247 582.375366,676.143433
	C580.533691,679.044800 577.787720,681.497925 577.890869,685.566650
	C581.934631,679.560791 585.978333,673.554993 590.456055,666.976074
M768.279236,754.696350
	C767.176147,756.657959 765.126526,758.121887 765.013245,760.881653
	C765.631775,761.127014 766.195312,761.471619 766.799500,761.572815
	C792.790894,765.923706 818.779846,770.290283 844.788208,774.537842
	C848.048523,775.070251 851.701965,775.529968 854.435303,773.246338
	C859.670532,768.872498 863.015259,763.005188 866.590820,757.379089
	C864.861206,755.978760 863.436646,755.635376 861.947754,755.393005
	C837.736938,751.452271 813.467957,747.824524 789.352600,743.366150
	C780.992493,741.820618 774.774231,742.495667 771.042542,750.901611
	C770.515137,752.089722 769.503845,753.063049 768.279236,754.696350
M801.399170,720.775879
	C827.731140,725.037048 854.062195,729.303772 880.397400,733.544861
	C881.907776,733.788086 883.471802,733.712341 884.510376,732.359497
	C887.606567,728.326050 890.856750,724.386597 893.578369,719.244202
	C890.456665,718.530029 887.949219,717.804932 885.391235,717.394897
	C863.139954,713.828674 840.878906,710.323120 818.622253,706.790283
	C807.169250,704.972412 795.723511,703.107788 784.262207,701.344116
	C782.877441,701.130981 781.147400,700.261353 780.050415,701.784058
	C776.819946,706.268555 773.109619,710.466125 770.410400,716.061096
	C780.960144,717.686523 790.740173,719.193359 801.399170,720.775879
M687.463379,748.338562
	C702.837341,750.863403 718.212769,753.379700 733.582825,755.928223
	C734.885864,756.144226 736.324158,756.872253 737.296631,755.569519
	C741.603943,749.799438 745.814392,743.957092 750.572388,737.438843
	C732.933411,734.599548 716.414795,731.951721 699.902405,729.266174
	C698.162231,728.983215 696.674561,728.960632 695.492737,730.604736
	C691.639221,735.965149 687.714417,741.274231 683.527344,746.999146
	C684.972839,747.476624 685.875793,747.774902 687.463379,748.338562
M652.566223,742.482117
	C654.467773,742.802795 656.350769,742.672668 657.568848,741.038025
	C661.495911,735.768127 665.311646,730.415222 669.356567,724.837463
	C667.967651,724.221680 667.255432,723.718872 666.481201,723.590576
	C654.237732,721.562378 641.985779,719.585327 629.737427,717.586243
	C628.538269,717.390503 627.310059,717.360474 626.486023,718.324219
	C622.017944,723.549866 617.715271,728.898743 613.600037,735.757629
	C627.113037,738.060730 639.447144,740.162964 652.566223,742.482117
M203.024841,650.705017
	C197.998901,650.726501 192.655853,646.760803 188.045319,652.013123
	C184.617340,655.918274 180.291046,659.066650 177.552353,664.104614
	C193.052933,666.651245 208.082626,669.141479 223.124115,671.558228
	C224.564056,671.789551 226.243195,672.055603 227.463898,670.985291
	C232.163177,666.864929 236.450134,662.352661 241.220688,656.751465
	C228.014328,654.698181 215.942642,652.821350 203.024841,650.705017
M553.369568,725.857117
	C562.669800,727.443237 571.959534,729.096191 581.279053,730.559448
	C583.151611,730.853455 585.522583,731.536194 586.927368,729.676819
	C591.049316,724.220642 595.578430,719.024841 599.114685,712.735291
	C585.938843,710.594971 573.372559,708.536011 560.797058,706.535278
	C559.353821,706.305664 557.574402,705.816162 556.504456,707.041748
	C551.997803,712.203979 547.854553,717.644714 543.997864,723.552368
	C547.282715,725.155762 549.853882,725.646423 553.369568,725.857117
M138.087234,640.554321
	C130.045425,639.383484 122.001221,638.228638 113.964241,637.025574
	C112.670212,636.831970 111.346016,636.086304 110.204536,637.263550
	C105.857552,641.746765 100.644875,645.414062 96.645386,651.389465
	C110.451149,653.547974 123.652435,655.672119 136.877045,657.639587
	C140.424637,658.167358 144.501419,660.378601 147.521378,658.037170
	C152.251678,654.369690 156.184662,649.673889 161.379318,644.491943
	C152.924469,643.101990 145.926941,641.951599 138.087234,640.554321
M336.841034,682.309631
	C335.386505,684.575317 332.855743,686.144714 332.003632,689.359802
	C345.956543,691.611816 359.517822,693.783875 373.069031,696.016968
	C374.272644,696.215332 375.437805,696.507507 376.303802,695.485535
	C380.322601,690.743164 384.290924,685.958008 388.566772,680.841858
	C386.684570,680.189941 385.632172,679.641113 384.521484,679.469604
	C375.022339,678.002747 365.291168,677.426758 356.070923,674.944397
	C347.549744,672.650391 341.742462,674.482788 336.841034,682.309631
M488.472046,714.717407
	C495.801880,716.000183 503.122070,717.343262 510.468689,718.521545
	C512.216248,718.801880 514.469482,719.383972 515.713318,717.875977
	C519.850037,712.860596 523.712463,707.618958 528.213501,701.770996
	C515.036926,699.557678 503.153198,697.567871 491.272919,695.557861
	C489.837769,695.315002 488.614349,695.624084 487.697693,696.760437
	C483.682770,701.737854 479.690460,706.733582 475.348145,712.148865
	C479.739105,714.021057 483.790710,713.804443 488.472046,714.717407
M273.946747,662.364441
	C267.074890,665.255676 264.012634,671.941162 257.969025,677.381897
	C272.272217,679.615112 285.290436,681.662537 298.316193,683.661011
	C299.794769,683.887878 301.421448,683.950623 302.515045,682.683044
	C306.361908,678.224060 310.988953,674.398682 314.320221,668.571899
	C300.781311,666.448669 287.767975,664.407776 273.946747,662.364441
M429.671692,686.179138
	C425.980927,685.622986 421.469330,682.947266 418.745361,685.284546
	C413.709991,689.605164 409.877563,695.327698 404.897247,701.233154
	C418.437775,703.372131 430.807678,705.342529 443.188599,707.240906
	C443.914673,707.352173 445.038788,707.140442 445.455902,706.642212
	C449.626953,701.660156 453.688477,696.586304 458.494080,690.658630
	C448.148926,689.045898 439.340851,687.672729 429.671692,686.179138
M715.245178,690.426819
	C710.155212,689.679138 705.066895,688.919189 699.973877,688.193298
	C698.854980,688.033875 697.526489,687.406067 696.664246,688.483521
	C693.303467,692.683289 690.137756,697.021912 687.403137,702.457092
	C696.579895,703.940918 704.914917,705.316223 713.261597,706.616882
	C715.108704,706.904724 716.946777,706.816772 718.170410,704.992798
	C720.824463,701.036926 723.496704,697.093262 726.177795,693.120422
	C722.821045,690.552612 719.129578,691.948792 715.245178,690.426819
M639.800415,682.631226
	C632.458069,682.042542 625.398071,680.297791 618.536133,677.626831
	C617.103394,677.069092 615.284912,675.646240 613.938049,677.354004
	C610.819153,681.308655 607.329773,685.084656 605.230042,690.774963
	C614.553711,692.248535 623.187256,693.629028 631.830994,694.942932
	C632.402710,695.029907 633.387573,694.796509 633.612732,694.394348
	C635.803894,690.479919 639.867188,687.631714 639.800415,682.631226
M541.953979,665.943970
	C535.716370,664.832397 531.339478,668.464172 527.559082,678.142517
	C534.632751,679.296143 541.625671,680.453491 548.626770,681.559204
	C549.607117,681.713928 550.767761,681.724426 551.413940,680.853027
	C554.213745,677.077393 557.375488,673.516602 559.665161,668.657288
	C553.547424,667.747009 548.161743,666.945679 541.953979,665.943970
M471.013916,669.558044
	C476.126465,666.851440 478.019348,661.535278 482.009033,656.864807
	C474.907562,654.712952 468.381622,654.093994 461.886414,653.358032
	C461.309906,653.292725 460.470428,653.605042 460.092194,654.038086
	C456.894592,657.699219 453.560608,661.279907 451.114594,665.852051
	C457.752991,668.098694 464.120148,668.212097 471.013916,669.558044
M244.443268,623.173767
	C246.104904,620.996460 244.569199,620.299500 242.832001,619.706665
	C229.143341,615.035278 224.622192,616.274841 215.673279,627.176514
	C215.500214,627.387329 215.542404,627.774841 215.475662,628.124512
	C218.445114,629.868958 221.950851,629.298523 225.064865,630.362000
	C233.136078,633.118408 239.634048,631.417786 244.443268,623.173767
M167.002106,621.342407
	C169.285278,621.735413 171.554886,622.263672 173.854340,622.494080
	C179.124252,623.022217 184.919891,625.021729 187.905762,617.766113
	C186.795273,617.656250 185.686661,617.466187 184.576614,617.457397
	C183.253784,617.446899 181.924194,617.539368 180.607025,617.677551
	C168.734802,618.923340 157.490631,616.468506 146.798233,611.519226
	C139.729263,608.247192 138.090897,608.596375 133.765732,616.143677
	C144.633087,617.806763 155.396439,619.453918 167.002106,621.342407
M384.617218,641.425720
	C377.860352,642.511658 376.633698,648.747375 372.520844,653.297485
	C378.774475,654.273926 384.009064,655.034363 389.219025,655.936829
	C390.957062,656.237976 392.610840,656.461548 393.719574,654.836792
	C396.017883,651.468872 399.372009,648.845459 401.224365,644.367859
	C395.723114,643.380493 390.564209,642.454529 384.617218,641.425720
M296.528473,637.789062
	C295.904297,638.833252 294.382629,639.620483 295.746216,641.485229
	C300.747406,642.257141 305.985626,643.035339 311.210876,643.892273
	C312.595093,644.119324 313.912476,644.293335 314.828033,642.998840
	C317.187164,639.663025 320.400635,636.940552 322.234650,633.186279
	C316.743042,630.161499 310.771179,629.983765 305.177338,629.819214
	C301.515808,629.711548 299.713531,634.695557 296.528473,637.789062
z" fill="#000000" opacity="1.000000"
	stroke="none"/>
<path d="
M507.299744,480.259033
	C497.132599,489.865601 472.609100,489.183502 462.472656,476.830139
	C459.698914,473.449768 457.512573,473.314880 453.784363,475.633972
	C442.015198,482.954773 425.245026,480.742340 415.523285,470.997833
	C412.355896,467.823029 410.405762,464.072388 410.654114,459.399994
	C410.862183,455.484863 412.046143,452.297638 416.023956,450.652924
	C420.160645,448.942535 423.554291,450.168427 426.413483,453.160309
	C429.436371,456.323456 432.332031,459.358643 437.152161,459.739807
	C443.582642,460.248383 448.004852,457.357788 451.303436,452.218750
	C452.939880,449.669312 454.690094,447.194702 457.505585,445.898499
	C462.288544,443.696533 467.770721,445.345276 470.502441,449.967712
	C471.837311,452.226501 472.582214,454.837646 473.561493,457.302307
	C477.310272,466.737366 486.620667,470.213165 495.624359,465.527252
	C502.683594,461.853394 506.553375,461.843170 509.615509,465.490509
	C512.597595,469.042572 511.833344,474.480774 507.299744,480.259033
z" fill="#000000" opacity="1.000000"
	stroke="none"/>
<path d="
M578.177368,446.381104
	C585.169434,433.911133 597.329529,428.403778 608.284546,432.498444
	C616.713989,435.649170 622.245544,443.547455 621.954468,454.215149
	C621.624573,466.305511 616.949219,476.531555 605.735779,482.617676
	C590.925171,490.656067 575.215637,481.443573 574.586853,464.566742
	C574.353455,458.304382 575.027344,452.313599 578.177368,446.381104
z" fill="#000000" opacity="1.000000"
	stroke="none"/>
<path d="
M373.281738,442.307190
	C368.983612,446.219330 364.396515,448.807037 358.885559,449.284485
	C347.045563,450.310242 337.739014,442.016785 336.874329,428.665924
	C336.134460,417.242249 340.217896,407.347534 349.892700,400.619629
	C357.319214,395.455231 365.516998,394.799896 373.351654,399.548615
	C381.332306,404.385803 383.520996,412.575226 382.973938,421.170319
	C382.470276,429.083679 379.455658,436.344116 373.281738,442.307190
z" fill="#000000" opacity="1.000000"
	stroke="none"/>
</svg>