<svg fill="none" height="40" viewBox="0 0 40 40" width="40" xmlns="http://www.w3.org/2000/svg">
  <!-- Code Braces (Brighter for dark theme) -->
  <circle cx="17" cy="24" fill="#333333" r="0.75"/>
  <circle cx="23" cy="24" fill="#333333" r="0.75"/>

  <!-- Bongo Cat Body -->
  <circle cx="15" cy="26" fill="#FFC0CB" r="1"/>

  <!-- Bongo Cat Ears -->
  <circle cx="25" cy="26" fill="#FFC0CB" r="1"/>
  <path d="M15 11C12.4 11 10.5 13 10.5 15.5V16.5C10.5 18 11 19 12.5 19.5" stroke="#AFB1B3"
    stroke-linecap="round" stroke-width="2"/>
  <path d="M25 29C27.6 29 29.5 27 29.5 24.5V23.5C29.5 22 29 21 27.5 20.5" stroke="#AFB1B3"
    stroke-linecap="round" stroke-width="2"/>

  <!-- Bongo Cat Face -->
  <path d="M12 25C12 21.6863 15.5817 19 20 19C24.4183 19 28 21.6863 28 25V28H12V25Z" fill="white"
    stroke="#333333" stroke-width="1.5"/>
  <path d="M13 20L15 16L17 20" fill="white" stroke="#333333" stroke-linecap="round"
    stroke-linejoin="round" stroke-width="1.5"/>
  <path d="M27 20L25 16L23 20" fill="white" stroke="#333333" stroke-linecap="round"
    stroke-linejoin="round" stroke-width="1.5"/>

  <!-- Cheeks -->
  <path d="M14 19.5L15 17.5L16 19.5" fill="#FFC0CB"/>
  <path d="M19 26C19 26 19.5 26.5 20 26.5C20.5 26.5 21 26 21 26" stroke="#333333" stroke-linecap="round"
    stroke-width="1"/>
</svg>